dataset
version=1
nRows=16
nColumns=39
inDegrees=no
endheader
time	sternoclavicular_r2	sternoclavicular_r3	unrotscap_r3	unrotscap_r2	acromioclavicular_r2	acromioclavicular_r3	acromioclavicular_r1	unrothum_r1	unrothum_r3	unrothum_r2	elv_angle	shoulder_elv	shoulder1_r2	shoulder_rot	elbow_flexion	pro_sup	deviation	flexion	cmc_abduction	cmc_flexion	mp_flexion	ip_flexion	mcp2_flexion	mcp2_abduction	pm2_flexion	md2_flexion	mcp3_flexion	mcp3_abduction	pm3_flexion	md3_flexion	mcp4_flexion	mcp4_abduction	pm4_flexion	md4_flexion	mcp5_flexion	mcp5_abduction	pm5_flexion	md5_flexion
3.375000	-0.045981	-0.254906	0.070368	0.113883	0.070839	0.209735	0.050441	0.196319	0.088144	0.027650	0.070940	0.027437	0.146525	0.146525	2.426355	1.288116	0.000000	0.000000	0.000000	0.000000	0.000000	0.000000	0.000000	0.000000	0.000000	0.000000	0.000000	0.000000	0.000000	0.000000	0.000000	0.000000	0.000000	0.000000	0.000000	0.000000	0.000000	0.000000
3.380000	-0.045868	-0.255041	0.070417	0.113796	0.070809	0.209445	0.050193	0.195933	0.087901	0.027659	0.070809	0.027437	0.146525	0.146525	2.425683	1.288157	0.000000	0.000000	0.000000	0.000000	0.000000	0.000000	0.000000	0.000000	0.000000	0.000000	0.000000	0.000000	0.000000	0.000000	0.000000	0.000000	0.000000	0.000000	0.000000	0.000000	0.000000	0.000000
3.385000	-0.045754	-0.255179	0.070468	0.113704	0.070776	0.209151	0.049940	0.195537	0.087655	0.027667	0.070676	0.027437	0.146525	0.146525	2.425011	1.288197	0.000000	0.000000	0.000000	0.000000	0.000000	0.000000	0.000000	0.000000	0.000000	0.000000	0.000000	0.000000	0.000000	0.000000	0.000000	0.000000	0.000000	0.000000	0.000000	0.000000	0.000000	0.000000
3.390000	-0.045637	-0.255319	0.070521	0.113610	0.070741	0.208854	0.049683	0.195132	0.087409	0.027674	0.070539	0.027437	0.146525	0.146525	2.424340	1.288236	0.000000	0.000000	0.000000	0.000000	0.000000	0.000000	0.000000	0.000000	0.000000	0.000000	0.000000	0.000000	0.000000	0.000000	0.000000	0.000000	0.000000	0.000000	0.000000	0.000000	0.000000	0.000000
3.395000	-0.045518	-0.255461	0.070577	0.113512	0.070703	0.208552	0.049420	0.194716	0.087160	0.027681	0.070399	0.027437	0.146525	0.146525	2.423671	1.288275	0.000000	0.000000	0.000000	0.000000	0.000000	0.000000	0.000000	0.000000	0.000000	0.000000	0.000000	0.000000	0.000000	0.000000	0.000000	0.000000	0.000000	0.000000	0.000000	0.000000	0.000000	0.000000
3.400000	-0.045398	-0.255605	0.070634	0.113410	0.070662	0.208246	0.049152	0.194290	0.086910	0.027687	0.070257	0.027437	0.146525	0.146525	2.423003	1.288313	0.000000	0.000000	0.000000	0.000000	0.000000	0.000000	0.000000	0.000000	0.000000	0.000000	0.000000	0.000000	0.000000	0.000000	0.000000	0.000000	0.000000	0.000000	0.000000	0.000000	0.000000	0.000000
3.405000	-0.045276	-0.255750	0.070693	0.113305	0.070618	0.207935	0.048877	0.193851	0.086658	0.027693	0.070111	0.027437	0.146525	0.146525	2.422337	1.288350	0.000000	0.000000	0.000000	0.000000	0.000000	0.000000	0.000000	0.000000	0.000000	0.000000	0.000000	0.000000	0.000000	0.000000	0.000000	0.000000	0.000000	0.000000	0.000000	0.000000	0.000000	0.000000
3.410000	-0.045153	-0.255898	0.070755	0.113197	0.070572	0.207620	0.048597	0.193401	0.086404	0.027698	0.069963	0.027437	0.146525	0.146525	2.421674	1.288387	0.000000	0.000000	0.000000	0.000000	0.000000	0.000000	0.000000	0.000000	0.000000	0.000000	0.000000	0.000000	0.000000	0.000000	0.000000	0.000000	0.000000	0.000000	0.000000	0.000000	0.000000	0.000000
3.415000	-0.045027	-0.256047	0.070819	0.113085	0.070524	0.207300	0.048310	0.192937	0.086148	0.027704	0.069812	0.027437	0.146525	0.146525	2.421012	1.288423	0.000000	0.000000	0.000000	0.000000	0.000000	0.000000	0.000000	0.000000	0.000000	0.000000	0.000000	0.000000	0.000000	0.000000	0.000000	0.000000	0.000000	0.000000	0.000000	0.000000	0.000000	0.000000
3.420000	-0.044900	-0.256197	0.070886	0.112969	0.070472	0.206974	0.048016	0.192460	0.085890	0.027710	0.069659	0.027437	0.146525	0.146525	2.420352	1.288459	0.000000	0.000000	0.000000	0.000000	0.000000	0.000000	0.000000	0.000000	0.000000	0.000000	0.000000	0.000000	0.000000	0.000000	0.000000	0.000000	0.000000	0.000000	0.000000	0.000000	0.000000	0.000000
3.425000	-0.044771	-0.256348	0.070956	0.112850	0.070419	0.206643	0.047716	0.191969	0.085631	0.027716	0.069503	0.027437	0.146525	0.146525	2.419694	1.288493	0.000000	0.000000	0.000000	0.000000	0.000000	0.000000	0.000000	0.000000	0.000000	0.000000	0.000000	0.000000	0.000000	0.000000	0.000000	0.000000	0.000000	0.000000	0.000000	0.000000	0.000000	0.000000
3.430000	-0.044641	-0.256501	0.071029	0.112727	0.070362	0.206306	0.047407	0.191462	0.085370	0.027722	0.069345	0.027437	0.146525	0.146525	2.419038	1.288527	0.000000	0.000000	0.000000	0.000000	0.000000	0.000000	0.000000	0.000000	0.000000	0.000000	0.000000	0.000000	0.000000	0.000000	0.000000	0.000000	0.000000	0.000000	0.000000	0.000000	0.000000	0.000000
3.435000	-0.044509	-0.256654	0.071105	0.112600	0.070304	0.205963	0.047091	0.190940	0.085107	0.027730	0.069184	0.027437	0.146525	0.146525	2.418383	1.288561	0.000000	0.000000	0.000000	0.000000	0.000000	0.000000	0.000000	0.000000	0.000000	0.000000	0.000000	0.000000	0.000000	0.000000	0.000000	0.000000	0.000000	0.000000	0.000000	0.000000	0.000000	0.000000
3.440000	-0.044376	-0.256807	0.071184	0.112470	0.070243	0.205613	0.046766	0.190401	0.084843	0.027739	0.069022	0.027437	0.146525	0.146525	2.417729	1.288594	0.000000	0.000000	0.000000	0.000000	0.000000	0.000000	0.000000	0.000000	0.000000	0.000000	0.000000	0.000000	0.000000	0.000000	0.000000	0.000000	0.000000	0.000000	0.000000	0.000000	0.000000	0.000000
3.445000	-0.044241	-0.256961	0.071266	0.112337	0.070179	0.205258	0.046433	0.189844	0.084577	0.027749	0.068857	0.027437	0.146525	0.146525	2.417074	1.288627	0.000000	0.000000	0.000000	0.000000	0.000000	0.000000	0.000000	0.000000	0.000000	0.000000	0.000000	0.000000	0.000000	0.000000	0.000000	0.000000	0.000000	0.000000	0.000000	0.000000	0.000000	0.000000
3.450000	-0.044104	-0.257114	0.071353	0.112199	0.070114	0.204895	0.046091	0.189268	0.084309	0.027762	0.068690	0.027437	0.146525	0.146525	2.416419	1.288659	0.000000	0.000000	0.000000	0.000000	0.000000	0.000000	0.000000	0.000000	0.000000	0.000000	0.000000	0.000000	0.000000	0.000000	0.000000	0.000000	0.000000	0.000000	0.000000	0.000000	0.000000	0.000000
